<svg id="Layer_1" data-name="Layer 1" xmlns="http://www.w3.org/2000/svg" viewBox="0 0 414 238"><defs><style>.cls-1{fill:#fff;}.cls-2{font-size:12px;font-family:Chicago;}.cls-3{letter-spacing:3.98em;}.cls-4{letter-spacing:0.09em;}.cls-5{letter-spacing:0.16em;}.cls-6{letter-spacing:0.16em;}.cls-7{letter-spacing:0.03em;}.cls-8{letter-spacing:0.03em;}</style></defs><title>Artboard 1 copy 133</title><rect class="cls-1" x="0.5" y="0.5" width="413" height="237"/><path d="M413,1V237H1V1H413m1-1H0V238H414V0Z"/><text class="cls-2" transform="translate(34.77 21.81)">unknown</text><text class="cls-2" transform="translate(305.77 21.81)">09.09.1991</text><text class="cls-2" transform="translate(175.77 21.81)">frep ills ;)</text><text class="cls-2" transform="translate(35.17 57.21)">try:<tspan class="cls-3" x="0" y="14.4" xml:space="preserve">    </tspan><tspan x="207.2" y="14.4">server_info</tspan><tspan class="cls-3" x="284.17" y="14.4"> </tspan><tspan x="335.97" y="14.4">= </tspan><tspan class="cls-4" x="0" y="28.8">ServerConnectivityInfo(hostname=hostname</tspan><tspan x="339.98" y="28.8">, </tspan><tspan x="0" y="43.2">port=587,</tspan><tspan x="0" y="57.6" xml:space="preserve">                                         </tspan><tspan x="0" y="72">tls_wrapped_protocol=TlsWrappedProtocolEnum.STA</tspan><tspan x="0" y="86.4">RTTLS_SMTP)</tspan><tspan x="0" y="100.8" xml:space="preserve">    server_info.test_connectivity_to_server()</tspan><tspan x="0" y="115.2">except ServerConnectivityError as e:</tspan><tspan class="cls-5" x="0" y="129.6" xml:space="preserve">    </tspan><tspan x="23.68" y="129.6">#</tspan><tspan class="cls-5" x="33.69" y="129.6"> </tspan><tspan x="39.61" y="129.6">Could</tspan><tspan class="cls-5" x="75.59" y="129.6"> </tspan><tspan x="81.51" y="129.6">not</tspan><tspan class="cls-6" x="103.49" y="129.6"> </tspan><tspan x="109.41" y="129.6">establish</tspan><tspan class="cls-5" x="169.41" y="129.6"> </tspan><tspan x="175.33" y="129.6">an</tspan><tspan class="cls-5" x="191.32" y="129.6"> </tspan><tspan x="197.24" y="129.6">SSL</tspan><tspan class="cls-5" x="218.26" y="129.6"> </tspan><tspan x="224.18" y="129.6">connection</tspan><tspan class="cls-5" x="296.16" y="129.6"> </tspan><tspan x="302.08" y="129.6">to</tspan><tspan class="cls-6" x="316.07" y="129.6"> </tspan><tspan x="321.99" y="129.6">the </tspan><tspan x="0" y="144">server</tspan><tspan class="cls-7" x="0" y="158.4" xml:space="preserve">    </tspan><tspan x="17.37" y="158.4">raise</tspan><tspan class="cls-8" x="50.37" y="158.4"> </tspan><tspan x="54.71" y="158.4">RuntimeError(u&apos;Error</tspan><tspan class="cls-7" x="190.67" y="158.4"> </tspan><tspan x="195.02" y="158.4">when</tspan><tspan class="cls-8" x="230.99" y="158.4"> </tspan><tspan x="235.33" y="158.4">connecting</tspan><tspan class="cls-7" x="307.31" y="158.4"> </tspan><tspan x="311.65" y="158.4">to</tspan><tspan class="cls-7" x="325.65" y="158.4"> </tspan><tspan x="329.99" y="158.4">{}: </tspan></text></svg>