<svg id="Layer_1" data-name="Layer 1" xmlns="http://www.w3.org/2000/svg" viewBox="0 0 414 238"><defs><style>.cls-1{fill:#fff;}.cls-2{font-size:12px;font-family:Chicago;}.cls-3{letter-spacing:0.24em;}.cls-4{letter-spacing:0.24em;}.cls-5{letter-spacing:0.08em;}.cls-6{letter-spacing:0.08em;}.cls-7{letter-spacing:0.38em;}</style></defs><title>Artboard 1 copy 123</title><rect class="cls-1" x="0.5" y="0.5" width="413" height="237"/><path d="M413,1V237H1V1H413m1-1H0V238H414V0Z"/><text class="cls-2" transform="translate(34.77 21.81)">sam</text><text class="cls-2" transform="translate(306.77 21.81)">09.09.1991</text><text class="cls-2" transform="translate(135.77 21.81)">fwd: employee report</text><text class="cls-2" transform="translate(35.17 57.21)">You<tspan class="cls-3" x="23.98" y="0"> </tspan><tspan x="30.88" y="0">might</tspan><tspan class="cls-3" x="68.88" y="0"> </tspan><tspan x="75.79" y="0">want</tspan><tspan class="cls-4" x="109.77" y="0"> </tspan><tspan x="116.68" y="0">to</tspan><tspan class="cls-3" x="130.67" y="0"> </tspan><tspan x="137.58" y="0">take</tspan><tspan class="cls-3" x="167.55" y="0"> </tspan><tspan x="174.46" y="0">a</tspan><tspan class="cls-3" x="182.45" y="0"> </tspan><tspan x="189.36" y="0">look</tspan><tspan class="cls-3" x="217.35" y="0"> </tspan><tspan x="224.25" y="0">at</tspan><tspan class="cls-3" x="238.25" y="0"> </tspan><tspan x="245.16" y="0">this.</tspan><tspan class="cls-4" x="274.17" y="0"> </tspan><tspan x="281.08" y="0">Don’t</tspan><tspan class="cls-3" x="315.06" y="0"> </tspan><tspan x="321.97" y="0">tell </tspan><tspan x="0" y="14.4">anyone i sent you this. - sam</tspan><tspan x="0" y="43.2">fwd://employee_report_ed_1991_q4</tspan><tspan x="0" y="72">Employee Status: seeking-termination</tspan><tspan x="0" y="86.4">Employee Psych: manic, irresponsible</tspan><tspan x="0" y="100.8">Previous Inquiries? *(Y)</tspan><tspan x="0" y="129.6">*Failure</tspan><tspan class="cls-5" x="52.01" y="129.6"> </tspan><tspan x="57.02" y="129.6">by</tspan><tspan class="cls-6" x="73.01" y="129.6"> </tspan><tspan x="78.02" y="129.6">an</tspan><tspan class="cls-5" x="94" y="129.6"> </tspan><tspan x="99.02" y="129.6">employee</tspan><tspan class="cls-6" x="162.98" y="129.6"> </tspan><tspan x="167.99" y="129.6">to</tspan><tspan class="cls-5" x="181.99" y="129.6"> </tspan><tspan x="187" y="129.6">report</tspan><tspan class="cls-6" x="228.98" y="129.6"> </tspan><tspan x="233.99" y="129.6">to</tspan><tspan class="cls-5" x="247.98" y="129.6"> </tspan><tspan x="253" y="129.6">work</tspan><tspan class="cls-5" x="286.98" y="129.6"> </tspan><tspan x="292" y="129.6">without </tspan><tspan x="0" y="144">permission</tspan><tspan class="cls-7" x="72" y="144"> </tspan><tspan x="80.52" y="144">and</tspan><tspan class="cls-7" x="104.49" y="144"> </tspan><tspan x="113.01" y="144">without</tspan><tspan class="cls-7" x="165" y="144"> </tspan><tspan x="173.51" y="144">notice</tspan><tspan class="cls-7" x="214.51" y="144"> </tspan><tspan x="223.02" y="144">for</tspan><tspan class="cls-7" x="243.02" y="144"> </tspan><tspan x="251.53" y="144">fourteen</tspan><tspan class="cls-7" x="309.49" y="144"> </tspan><tspan x="318.01" y="144">(14) </tspan><tspan x="0" y="158.4">consecutive days will deem mandatory termination.</tspan></text></svg>