<svg id="Layer_1" data-name="Layer 1" xmlns="http://www.w3.org/2000/svg" viewBox="0 0 414 238"><defs><style>.cls-1{fill:#fff;}.cls-2{font-size:12px;font-family:Chicago;}.cls-3{letter-spacing:0.14em;}.cls-4{letter-spacing:0.14em;}.cls-5{letter-spacing:0.05em;}.cls-6{letter-spacing:0.05em;}.cls-7{letter-spacing:-0.02em;}.cls-8{letter-spacing:0.07em;}.cls-9{letter-spacing:0.16em;}</style></defs><title>Artboard 1 copy 103</title><rect class="cls-1" x="0.5" y="0.5" width="413" height="237"/><path d="M413,1V237H1V1H413m1-1H0V238H414V0Z"/><text class="cls-2" transform="translate(34.77 21.81)">john</text><text class="cls-2" transform="translate(305.77 21.81)">09.12.1991</text><text class="cls-2" transform="translate(165.77 21.81)">overtime calc</text><text class="cls-2" transform="translate(35.17 57.21)">Hi E,<tspan x="0" y="28.8">I</tspan><tspan class="cls-3" x="6" y="28.8"> </tspan><tspan x="11.68" y="28.8">just</tspan><tspan class="cls-3" x="38.68" y="28.8"> </tspan><tspan x="44.35" y="28.8">finished</tspan><tspan class="cls-3" x="97.34" y="28.8"> </tspan><tspan x="103.02" y="28.8">looking</tspan><tspan class="cls-3" x="151" y="28.8"> </tspan><tspan x="156.67" y="28.8">over</tspan><tspan class="cls-3" x="186.65" y="28.8"> </tspan><tspan x="192.32" y="28.8">the</tspan><tspan class="cls-3" x="214.31" y="28.8"> </tspan><tspan x="219.98" y="28.8">docs</tspan><tspan class="cls-3" x="249.98" y="28.8"> </tspan><tspan x="255.66" y="28.8">you</tspan><tspan class="cls-4" x="279.64" y="28.8"> </tspan><tspan x="285.31" y="28.8">sent</tspan><tspan class="cls-3" x="314.3" y="28.8"> </tspan><tspan x="319.98" y="28.8">me. </tspan><tspan x="0" y="43.2">Seems</tspan><tspan class="cls-5" x="42" y="43.2"> </tspan><tspan x="46.63" y="43.2">a</tspan><tspan class="cls-5" x="54.63" y="43.2"> </tspan><tspan x="59.26" y="43.2">bit</tspan><tspan class="cls-6" x="77.26" y="43.2"> </tspan><tspan x="81.9" y="43.2">off...</tspan><tspan class="cls-5" x="113.91" y="43.2"> </tspan><tspan x="118.55" y="43.2">well,</tspan><tspan class="cls-5" x="150.56" y="43.2"> </tspan><tspan x="155.2" y="43.2">it’s</tspan><tspan class="cls-5" x="176.22" y="43.2"> </tspan><tspan x="180.86" y="43.2">a</tspan><tspan class="cls-5" x="188.85" y="43.2"> </tspan><tspan x="193.48" y="43.2">lot</tspan><tspan class="cls-6" x="211.48" y="43.2"> </tspan><tspan x="216.12" y="43.2">off.</tspan><tspan class="cls-5" x="240.12" y="43.2"> </tspan><tspan x="244.75" y="43.2">Did</tspan><tspan class="cls-5" x="264.75" y="43.2"> </tspan><tspan x="269.38" y="43.2">you</tspan><tspan class="cls-5" x="293.36" y="43.2"> </tspan><tspan x="297.99" y="43.2">realize </tspan><tspan x="0" y="57.6">that</tspan><tspan class="cls-7" x="27.98" y="57.6"> </tspan><tspan x="31.72" y="57.6">you</tspan><tspan class="cls-7" x="55.7" y="57.6"> </tspan><tspan x="59.43" y="57.6">reported</tspan><tspan class="cls-7" x="117.39" y="57.6"> </tspan><tspan x="121.13" y="57.6">$12,209</tspan><tspan class="cls-7" x="172.1" y="57.6"> </tspan><tspan x="175.84" y="57.6">of</tspan><tspan class="cls-7" x="189.83" y="57.6"> </tspan><tspan x="193.57" y="57.6">overtime</tspan><tspan class="cls-7" x="253.54" y="57.6"> </tspan><tspan x="257.28" y="57.6">for</tspan><tspan class="cls-7" x="277.27" y="57.6"> </tspan><tspan x="281.01" y="57.6">yourself? </tspan><tspan x="0" y="72">I’m</tspan><tspan class="cls-8" x="22.01" y="72"> </tspan><tspan x="26.82" y="72">asking</tspan><tspan class="cls-8" x="69.8" y="72"> </tspan><tspan x="74.61" y="72">you</tspan><tspan class="cls-8" x="98.59" y="72"> </tspan><tspan x="103.4" y="72">before</tspan><tspan class="cls-8" x="147.37" y="72"> </tspan><tspan x="152.18" y="72">I</tspan><tspan class="cls-8" x="158.18" y="72"> </tspan><tspan x="162.99" y="72">have</tspan><tspan class="cls-8" x="194.96" y="72"> </tspan><tspan x="199.77" y="72">to</tspan><tspan class="cls-8" x="213.76" y="72"> </tspan><tspan x="218.57" y="72">escalate</tspan><tspan class="cls-8" x="274.56" y="72"> </tspan><tspan x="279.38" y="72">this</tspan><tspan class="cls-8" x="304.38" y="72"> </tspan><tspan x="309.19" y="72">to</tspan><tspan class="cls-8" x="323.19" y="72"> </tspan><tspan x="328" y="72">an </tspan><tspan x="0" y="86.4">inquiry.</tspan><tspan class="cls-9" x="49.99" y="86.4"> </tspan><tspan x="55.89" y="86.4">I</tspan><tspan class="cls-9" x="61.89" y="86.4"> </tspan><tspan x="67.8" y="86.4">can</tspan><tspan class="cls-9" x="90.79" y="86.4"> </tspan><tspan x="96.69" y="86.4">let</tspan><tspan class="cls-9" x="114.69" y="86.4"> </tspan><tspan x="120.59" y="86.4">you</tspan><tspan class="cls-9" x="144.57" y="86.4"> </tspan><tspan x="150.47" y="86.4">change</tspan><tspan class="cls-9" x="197.44" y="86.4"> </tspan><tspan x="203.34" y="86.4">the</tspan><tspan class="cls-9" x="225.33" y="86.4"> </tspan><tspan x="231.23" y="86.4">numbers</tspan><tspan class="cls-9" x="288.21" y="86.4"> </tspan><tspan x="294.11" y="86.4">and</tspan><tspan class="cls-9" x="318.09" y="86.4"> </tspan><tspan x="323.99" y="86.4">we </tspan><tspan x="0" y="100.8">can forget about all of this even happening.</tspan><tspan x="0" y="129.6">Yours,</tspan><tspan x="0" y="144">John</tspan></text></svg>