<svg id="Layer_1" data-name="Layer 1" xmlns="http://www.w3.org/2000/svg" viewBox="0 0 414 238"><defs><style>.cls-1{fill:#fff;}.cls-2{font-size:12px;font-family:Chicago;}.cls-3{letter-spacing:-0.01em;}.cls-4{letter-spacing:-0.01em;}.cls-5{letter-spacing:0.13em;}.cls-6{letter-spacing:0.13em;}</style></defs><title>Artboard 1 copy 83</title><rect class="cls-1" x="0.5" y="0.5" width="413" height="237"/><path d="M413,1V237H1V1H413m1-1H0V238H414V0Z"/><text class="cls-2" transform="translate(34.77 21.81)">stacey</text><text class="cls-2" transform="translate(317.77 21.81)">9.12.1991</text><text class="cls-2" transform="translate(165.77 21.81)">re: help!!!!!!</text><text class="cls-2" transform="translate(35.17 57.21)">Hey,<tspan x="0" y="28.8">I</tspan><tspan class="cls-3" x="6" y="28.8"> </tspan><tspan x="9.92" y="28.8">don’t</tspan><tspan class="cls-3" x="43.91" y="28.8"> </tspan><tspan x="47.83" y="28.8">know</tspan><tspan class="cls-4" x="83.8" y="28.8"> </tspan><tspan x="87.73" y="28.8">why</tspan><tspan class="cls-3" x="115.71" y="28.8"> </tspan><tspan x="119.63" y="28.8">I</tspan><tspan class="cls-3" x="125.63" y="28.8"> </tspan><tspan x="129.55" y="28.8">have</tspan><tspan class="cls-3" x="161.52" y="28.8"> </tspan><tspan x="165.44" y="28.8">to</tspan><tspan class="cls-4" x="179.44" y="28.8"> </tspan><tspan x="183.36" y="28.8">keep</tspan><tspan class="cls-3" x="215.33" y="28.8"> </tspan><tspan x="219.25" y="28.8">telling</tspan><tspan class="cls-3" x="261.25" y="28.8"> </tspan><tspan x="265.17" y="28.8">you</tspan><tspan class="cls-3" x="289.15" y="28.8"> </tspan><tspan x="293.07" y="28.8">this</tspan><tspan class="cls-3" x="318.08" y="28.8"> </tspan><tspan x="322" y="28.8">but </tspan><tspan x="0" y="43.2">STOP</tspan><tspan class="cls-5" x="28.99" y="43.2"> </tspan><tspan x="34.6" y="43.2">trying</tspan><tspan class="cls-6" x="74.58" y="43.2"> </tspan><tspan x="80.19" y="43.2">to</tspan><tspan class="cls-5" x="94.18" y="43.2"> </tspan><tspan x="99.78" y="43.2">get</tspan><tspan class="cls-6" x="121.77" y="43.2"> </tspan><tspan x="127.37" y="43.2">me</tspan><tspan class="cls-5" x="147.37" y="43.2"> </tspan><tspan x="152.97" y="43.2">involved</tspan><tspan class="cls-5" x="208.94" y="43.2"> </tspan><tspan x="214.54" y="43.2">in</tspan><tspan class="cls-6" x="226.54" y="43.2"> </tspan><tspan x="232.15" y="43.2">this.</tspan><tspan class="cls-5" x="261.16" y="43.2"> </tspan><tspan x="266.77" y="43.2">This</tspan><tspan class="cls-6" x="291.78" y="43.2"> </tspan><tspan x="297.38" y="43.2">is</tspan><tspan class="cls-5" x="308.4" y="43.2"> </tspan><tspan x="314" y="43.2">your </tspan><tspan x="0" y="57.6">problem, deal with it.</tspan><tspan x="0" y="86.4">Pull this again and I’m going to forward to HR.</tspan><tspan x="0" y="115.2">-Stacey</tspan></text></svg>